HIERARCHY
ROOT Hips
{
  OFFSET 3.92544 6.39728 0
  CHANNELS 6 Xposition Yposition Zposition Zrotation Xrotation Yrotation
  JOINT BN_Spine_01
  {
    OFFSET 5.06197 -0.168311 0
    CHANNELS 6 Xposition Yposition Zposition Zrotation Xrotation Yrotation
    JOINT BN_Spine_02
    {
      OFFSET 14.8952 0 0
      CHANNELS 6 Xposition Yposition Zposition Zrotation Xrotation Yrotation
      JOINT BN_Spine_03
      {
        OFFSET 14.3786 0 0
        CHANNELS 6 Xposition Yposition Zposition Zrotation Xrotation Yrotation
        JOINT BN__Neck_01
        {
          OFFSET 15.3325 0 0
          CHANNELS 6 Xposition Yposition Zposition Zrotation Xrotation Yrotation
          JOINT BN__Neck_02
          {
            OFFSET 11.0839 0 0
            CHANNELS 6 Xposition Yposition Zposition Zrotation Xrotation Yrotation
            JOINT BN__Neck_R_01
            {
              OFFSET 3.85383 1.1973 3.491
              CHANNELS 6 Xposition Yposition Zposition Zrotation Xrotation Yrotation
              End Site
              {
                OFFSET 0 0 0
              }
            }
            JOINT BN__Neck_L_01
            {
              OFFSET 3.85383 1.1973 -3.49098
              CHANNELS 6 Xposition Yposition Zposition Zrotation Xrotation Yrotation
              End Site
              {
                OFFSET 0 0 0
              }
            }
            JOINT BN_Head_01
            {
              OFFSET 9.67523 0 0
              CHANNELS 6 Xposition Yposition Zposition Zrotation Xrotation Yrotation
              JOINT BN_Mouth_01
              {
                OFFSET 1.08197 -0.588672 0
                CHANNELS 6 Xposition Yposition Zposition Zrotation Xrotation Yrotation
                JOINT BN_Tongue_01
                {
                  OFFSET 2.17792 0.065941 0
                  CHANNELS 6 Xposition Yposition Zposition Zrotation Xrotation Yrotation
                  JOINT BN_Tongue_02
                  {
                    OFFSET 3.80658 -0.000201226 0
                    CHANNELS 6 Xposition Yposition Zposition Zrotation Xrotation Yrotation
                    End Site
                    {
                      OFFSET 0 0 0
                    }
                  }
                }
              }
            }
          }
        }
      }
    }
  }
  JOINT BN_Tail_01
  {
    OFFSET 4.67587 -0.164094 0
    CHANNELS 6 Xposition Yposition Zposition Zrotation Xrotation Yrotation
    JOINT BN_Tail_02
    {
      OFFSET 13.1147 2.52724e-005 0
      CHANNELS 6 Xposition Yposition Zposition Zrotation Xrotation Yrotation
      JOINT BN_Tail_03
      {
        OFFSET 13.4995 9.10759e-005 0
        CHANNELS 6 Xposition Yposition Zposition Zrotation Xrotation Yrotation
        JOINT BN_Tail_04
        {
          OFFSET 13.2851 0 0
          CHANNELS 6 Xposition Yposition Zposition Zrotation Xrotation Yrotation
          JOINT BN_Tail_05
          {
            OFFSET 14.6528 0.000106812 0
            CHANNELS 6 Xposition Yposition Zposition Zrotation Xrotation Yrotation
            JOINT BN_Tail_06
            {
              OFFSET 13.1048 0 0
              CHANNELS 6 Xposition Yposition Zposition Zrotation Xrotation Yrotation
              JOINT BN_Tail_07
              {
                OFFSET 11.869 0.000113964 0
                CHANNELS 6 Xposition Yposition Zposition Zrotation Xrotation Yrotation
                End Site
                {
                  OFFSET 0 0 0
                }
              }
            }
          }
        }
      }
    }
  }
}
MOTION
Frames:	9
Frame Time:	0.0333333
5.04398e-029 4 0 0 0 -0 4.98225 -0.16566 -2.79178e-009 -4.24854 3.32483 13.0768 14.6607 -8.88179e-016 -4.17232e-007 -0.475033 -5.50075 -11.3889 14.1522 8.88179e-016 1.43051e-006 -1.53586 2.17715 -25.1351 15.091 -8.88179e-016 3.8147e-006 0.753208 1.38302 0.767355 10.9093 -4.76838e-007 3.8147e-006 -1.72791 -4.29702 17.8193 2.77734 3.73046 -3.62823 -92.6245 3.6036 -73.0654 2.12792 2.41047 3.03236 90.7238 -3.62253 99.2038 9.52285 -1.90735e-006 3.57628e-007 -4.65115 1.73564 4.70284 1.06494 -0.579401 9.53675e-007 -0.870806 2.49708e-006 1.0024e-005 3.06777 0.266835 -2.86102e-006 21.707 -0.00211493 0.00752535 4.94515 0.645239 -4.76837e-007 18.0927 -0.000639439 -0.782502 4.60224 -0.161509 -2.42169e-009 179.099 -0.00173047 -14.7829 12.9082 9.53674e-007 -1.90735e-006 0.169438 1.03034 16.0087 13.2869 4.76837e-007 -3.33786e-006 1.88086 -2.47176 25.8494 13.0759 0 -9.53674e-007 1.25792 2.18641 25.3439 14.422 -9.53674e-007 -3.8147e-006 0.724505 2.62681 -4.11733 12.8984 0 0 -2.00548 -3.23124 -17.7305 11.6821 -2.38419e-007 -3.8147e-006 -1.63098 -1.64942 -20.4898 
5.04398e-029 4 0 0 0 -0 4.98225 -0.16566 7.37691e-008 -4.24114 3.32253 13.0893 14.6606 4.71612e-008 -3.29523e-007 -0.426439 -5.52057 -11.3913 14.1522 1.8403e-007 3.89438e-007 -1.49358 2.23132 -25.2271 15.0911 9.48424e-007 2.22305e-006 0.543061 1.28854 1.06021 10.9093 -2.04623e-007 -1.77205e-007 -1.83945 -4.52451 17.8055 2.78251 3.72344 -3.60602 -92.6078 3.55283 -73.0511 2.13493 2.4075 3.01326 90.7298 -3.65293 99.2138 9.52286 -1.36907e-006 -1.98693e-006 -4.68554 1.73572 4.7002 1.06494 -0.579401 1.41091e-006 -0.898522 8.84734e-006 1.01235e-005 3.06873 0.266979 -6.43556e-005 21.9543 -0.00207724 0.00753487 4.9413 0.64161 -0.000443996 17.8708 -0.00168195 -0.77332 4.60224 -0.161509 6.809e-008 179.101 -0.000858221 -14.7771 12.9082 3.84516e-007 1.51473e-007 0.164031 1.03036 16.0139 13.2869 -7.36967e-007 -1.20823e-006 1.87452 -2.45784 25.8539 13.0759 -9.29386e-008 -1.40302e-006 1.2555 2.18258 25.3595 14.422 7.79284e-009 -8.85805e-006 0.720486 2.62417 -4.08625 12.8984 1.90862e-007 -3.03383e-006 -2.00347 -3.2304 -17.7142 11.6821 3.55934e-008 -3.8511e-006 -1.63246 -1.64563 -20.4917 
5.04398e-029 4 0 0 0 -0 4.98225 -0.16566 1.15221e-007 -4.22229 3.31532 13.1164 14.6606 6.44346e-009 -1.01322e-007 -0.324855 -5.56064 -11.3978 14.1522 7.43872e-007 9.52359e-007 -1.40715 2.34323 -25.4192 15.0911 1.14698e-006 3.65883e-006 0.124485 1.1028 1.65408 10.9093 -1.28016e-007 1.47255e-006 -2.06723 -4.98717 17.7799 2.79484 3.70669 -3.55232 -92.5746 3.45023 -73.0221 2.15164 2.4004 2.9685 90.7436 -3.71581 99.2369 9.52285 -1.61982e-006 1.45708e-006 -4.75622 1.73728 4.69447 1.06494 -0.579402 1.90341e-006 -0.956082 1.07619e-005 -4.4488e-005 3.06967 0.267121 -0.000125008 22.1984 -0.0021174 0.00751379 4.93214 0.632995 -0.000828758 17.4131 -0.00228823 -0.765083 4.60224 -0.161509 1.06499e-007 179.102 0.00137534 -14.7648 12.9082 8.46599e-007 -3.48993e-008 0.155379 1.02694 16.0237 13.2869 -3.77415e-008 -2.04241e-007 1.86133 -2.43018 25.8636 13.0759 3.26164e-007 1.52322e-006 1.24881 2.17506 25.3895 14.4221 7.39841e-007 -6.19148e-006 0.711835 2.61721 -4.02148 12.8984 1.114e-006 3.14036e-007 -1.99757 -3.22749 -17.679 11.6821 6.96818e-007 -3.30802e-007 -1.63347 -1.63914 -20.4945 
5.04398e-029 4 0 0 0 -0 4.98225 -0.165661 -8.19248e-008 -4.18596 3.30054 13.1657 14.6607 1.36565e-007 5.16178e-007 -0.142097 -5.63167 -11.4104 14.1522 7.75538e-007 5.6057e-007 -1.25236 2.54317 -25.7652 15.0911 7.95503e-007 3.38653e-006 -0.610391 0.768453 2.70714 10.9093 2.49104e-007 2.07144e-006 -2.4739 -5.81055 17.7324 2.81598 3.67801 -3.46006 -92.5171 3.26818 -72.9706 2.18027 2.38824 2.8923 90.7701 -3.82839 99.2803 9.52286 -9.15352e-007 -1.13939e-006 -4.88248 1.7412 4.68401 1.06494 -0.579402 1.49131e-006 -1.05938 9.8858e-006 1.01562e-005 3.07062 0.267265 -0.000188057 22.4379 -0.00206832 0.00754854 4.91654 0.618269 -0.00114448 16.5937 -0.00215674 -0.758255 4.60224 -0.161509 -7.56627e-008 179.102 0.00563815 -14.7426 12.9082 7.88479e-007 -1.5278e-006 0.141798 1.01819 16.0408 13.2869 -4.04737e-007 1.41222e-007 1.83781 -2.38137 25.8813 13.0759 -1.81541e-007 5.67849e-006 1.23552 2.16192 25.4413 14.4221 1.49346e-007 -4.16342e-007 0.696094 2.60369 -3.90507 12.8984 7.74596e-007 2.49551e-006 -1.98562 -3.22135 -17.6147 11.6821 4.38515e-007 4.45981e-007 -1.63376 -1.62856 -20.4985 
5.04398e-029 4 0 0 0 -0 4.98225 -0.165661 -2.80405e-007 -4.13726 3.28188 13.2318 14.6607 3.45363e-007 1.37318e-007 0.108603 -5.73013 -11.4284 14.1522 3.89189e-007 -6.80013e-007 -1.03543 2.80865 -26.2296 15.0911 8.60741e-007 4.62422e-007 -1.5683 0.332381 4.10645 10.9093 -6.34177e-008 -3.73034e-008 -3.02441 -6.90223 17.6788 2.84446 3.6394 -3.33572 -92.4359 3.01969 -72.9038 2.21883 2.37187 2.78994 90.8063 -3.98597 99.3378 9.52286 -1.8314e-006 -1.5082e-006 -5.05685 1.74574 4.67076 1.06494 -0.579401 1.76945e-006 -1.19888 9.94594e-006 1.01657e-005 3.07157 0.267407 -0.000249773 22.6707 -0.00201294 0.00771458 4.89557 0.598456 -0.00140616 15.4934 -0.00117288 -0.749546 4.60224 -0.161509 -2.59108e-007 179.102 0.0113849 -14.7125 12.9082 7.43443e-007 4.13048e-008 0.121736 1.00926 16.0644 13.2869 -1.67984e-007 5.74211e-007 1.80361 -2.31557 25.9064 13.0759 -1.70065e-008 2.83112e-006 1.21903 2.14621 25.5125 14.4221 -1.18445e-007 -5.11273e-006 0.674218 2.5841 -3.74753 12.8984 4.15974e-007 -7.95739e-007 -1.9737 -3.21482 -17.5246 11.6821 -1.07253e-007 1.29143e-006 -1.63291 -1.61259 -20.5037 
5.04398e-029 4 0 0 0 -0 4.98223 -0.16566 -6.48432e-008 -4.07605 3.25917 13.3152 14.6605 2.64707e-007 -3.51687e-008 0.426008 -5.85507 -11.4516 14.152 3.27418e-007 6.55108e-007 -0.755836 3.1357 -26.8093 15.0908 5.71603e-007 4.32311e-006 -2.72115 -0.205116 5.82906 10.9091 -5.09022e-007 2.6408e-006 -3.71316 -8.24709 17.6187 2.87991 3.59118 -3.18048 -92.333 2.70727 -72.8237 2.26685 2.35139 2.6624 90.8515 -4.18629 99.4076 9.52262 -1.87933e-006 -3.57399e-007 -5.27812 1.75105 4.65458 1.06491 -0.579386 1.34627e-006 -1.37441 1.00361e-005 1.01691e-005 3.07244 0.267542 -0.000311505 22.8975 -0.00204783 0.00754613 4.8693 0.573751 -0.00161523 14.1225 -7.26047e-005 -0.739999 4.60222 -0.161509 -5.98579e-008 179.103 0.0185469 -14.6745 12.9081 7.8728e-007 3.43685e-007 0.0954207 0.998898 16.0941 13.2868 1.75714e-008 -1.04705e-006 1.75984 -2.23291 25.9384 13.0758 -4.2261e-008 -4.40283e-007 1.19903 2.12674 25.6035 14.4219 -3.73101e-007 -2.54349e-006 0.646216 2.55889 -3.54806 12.8983 7.65742e-008 -8.9131e-007 -1.95997 -3.20702 -17.4099 11.682 9.75234e-008 1.23867e-006 -1.63163 -1.59221 -20.5102 
5.04398e-029 4 0 0 0 -0 4.98225 -0.165661 2.35913e-008 -4.00169 3.23258 13.4163 14.6606 3.76384e-007 2.13805e-007 0.807706 -6.00436 -11.4799 14.1522 8.75673e-007 1.14906e-006 -0.413607 3.51843 -27.4993 15.0911 9.93105e-007 2.66957e-006 -4.02242 -0.829712 7.83915 10.9093 -2.47758e-007 2.55969e-006 -4.52944 -9.81935 17.5571 2.92208 3.53428 -2.99671 -92.2118 2.33482 -72.7333 2.32389 2.32728 2.51161 90.9041 -4.42455 99.4859 9.52285 -6.90138e-007 -5.95009e-007 -5.54403 1.75763 4.63545 1.06494 -0.579401 1.72905e-006 -1.58648 -1.71517e-005 9.40363e-006 3.07347 0.267692 -0.000373171 23.1206 -0.00248052 0.00540352 4.83854 0.544534 -0.0017674 12.4975 -0.00112127 -0.732414 4.60224 -0.161509 2.15433e-008 179.103 0.0271773 -14.629 12.9082 5.29388e-007 1.54101e-007 0.0629473 0.984078 16.1289 13.2869 -1.52291e-007 -1.04391e-006 1.70879 -2.13337 25.9766 13.0759 5.18073e-007 9.17497e-008 1.17472 2.10031 25.7166 14.4221 3.41631e-007 -8.18514e-006 0.611809 2.5288 -3.30397 12.8984 9.28299e-007 -1.64222e-006 -1.94018 -3.19548 -17.2741 11.6821 5.97448e-007 -6.35593e-007 -1.63182 -1.56992 -20.5178 
5.04398e-029 4 0 0 0 -0 4.98225 -0.16566 -5.99488e-010 -3.91555 3.20098 13.5338 14.6606 5.11873e-007 1.88012e-006 1.24976 -6.17785 -11.5128 14.1522 2.55774e-007 1.32804e-006 -0.00862627 3.94695 -28.2854 15.0911 9.57526e-007 3.28416e-006 -5.42426 -1.51783 10.087 10.9093 1.61918e-007 1.32159e-006 -5.45823 -11.5781 17.5035 2.96992 3.46954 -2.78774 -92.0739 1.90931 -72.6394 2.38863 2.29982 2.3403 90.9647 -4.70185 99.5706 9.52286 2.9784e-007 -1.84358e-006 -5.85316 1.76427 4.61336 1.06494 -0.579402 4.4574e-007 -1.83096 -1.95694e-006 9.73757e-006 3.07443 0.267839 -0.000435245 23.3375 -0.0027815 0.00391407 4.80344 0.511331 -0.00185765 10.6518 -0.00145251 -0.724291 4.60224 -0.161509 -2.63274e-010 179.103 0.0371257 -14.5766 12.9037 7.61357e-009 -1.06731e-007 0.0251946 0.967967 16.1686 13.2823 -1.63767e-006 -9.58766e-008 1.65035 -2.01844 26.0199 13.0713 -3.47134e-006 -4.94489e-007 1.14589 2.06985 25.8476 14.417 -6.35591e-006 -3.85027e-006 0.572371 2.49508 -3.01881 12.8939 -6.20568e-006 2.2095e-006 -1.91673 -3.18312 -17.1147 11.678 -2.29391e-006 1.70448e-006 -1.63164 -1.54338 -20.5275 
5.04398e-029 4 0 0 0 -0 4.98225 -0.165661 -6.12708e-011 -3.81815 3.16391 13.6668 14.6607 8.09848e-008 2.22536e-007 1.7498 -6.37528 -11.5498 14.1522 1.76019e-007 -2.65223e-007 0.459724 4.41489 -29.1609 15.0911 3.23466e-007 2.59744e-006 -6.89921 -2.26298 12.546 10.9093 2.52331e-007 -2.6969e-008 -6.49225 -13.5024 17.4582 3.02303 3.39761 -2.55557 -91.9203 1.43459 -72.5447 2.46051 2.26932 2.15011 91.0334 -5.01796 99.6604 9.52285 -4.32078e-007 -9.7907e-007 -6.20445 1.77048 4.58835 1.06494 -0.579402 1.92458e-006 -2.10589 1.04781e-005 1.00688e-005 3.07537 0.267981 -0.000497491 23.547 -0.00275581 0.00409574 4.76441 0.474466 -0.00188004 8.60313 -7.05794e-005 -0.714756 4.60224 -0.161509 -3.42017e-010 179.104 0.048349 -14.5177 12.9039 2.66097e-006 -1.31268e-007 -0.0174891 0.951724 16.2134 13.2825 8.89716e-007 -1.86764e-006 1.58475 -1.8888 26.0677 13.0715 -3.83174e-006 3.39582e-007 1.11244 2.03629 25.9946 14.4172 -9.14687e-006 -5.44091e-006 0.52856 2.45812 -2.69404 12.8941 -9.56191e-006 4.52434e-007 -1.89011 -3.17074 -16.9309 11.6782 -2.35054e-006 3.94841e-007 -1.63022 -1.5116 -20.5401 
